<svg width="85" height="85" viewBox="0 0 85 85" fill="none" xmlns="http://www.w3.org/2000/svg">
<path d="M16.45 2H69.15C77.14 2 83.6 8.49573 83.6 16.5299V67.4701C83.6 75.5043 77.14 82 69.15 82H16.45C8.46 82 2 75.5043 2 67.4701V16.5299C2 8.49573 8.46 2 16.45 2Z" fill="#00005B"/>
<path d="M34.776 49.8632H22.128L19.544 57.9316C19.476 58.2393 19.204 58.4444 18.898 58.4103H12.506C12.132 58.4103 12.03 58.2051 12.132 57.7949L23.08 26.2393C23.182 25.8974 23.284 25.5897 23.42 25.1795C23.556 24.4615 23.624 23.7094 23.624 22.9573C23.59 22.7863 23.726 22.6154 23.896 22.5812H32.702C32.94 22.5812 33.11 22.6838 33.144 22.8547L45.554 57.7265C45.656 58.1026 45.554 58.2735 45.214 58.2735H38.108C37.87 58.3077 37.632 58.1368 37.564 57.8974L34.776 49.6923V49.8632ZM24.1 43.0598H32.736C32.532 42.3419 32.26 41.4872 31.954 40.5983C31.648 39.6752 31.342 38.6838 31.036 37.6581C30.696 36.5983 30.39 35.5726 30.05 34.5128C29.71 33.453 29.404 32.4615 29.132 31.4701C28.86 30.5128 28.622 29.6239 28.384 28.8034H28.316C28.01 30.2735 27.636 31.7436 27.16 33.2137C26.65 34.8547 26.14 36.5641 25.596 38.2735C25.154 40.0171 24.61 41.6239 24.1 43.0598Z" fill="#9999FF"/>
<path d="M65.58 46.7863H54.802C54.938 47.8462 55.278 48.906 55.856 49.8291C56.468 50.7521 57.318 51.4701 58.338 51.8803C59.698 52.4615 61.194 52.7692 62.69 52.735C63.88 52.7009 65.07 52.5983 66.226 52.359C67.28 52.2222 68.3 51.9487 69.252 51.5727C69.422 51.4359 69.524 51.5043 69.524 51.8462V57.0769C69.524 57.2137 69.49 57.3504 69.456 57.4872C69.388 57.5897 69.32 57.6581 69.218 57.7265C68.13 58.2051 67.008 58.547 65.818 58.7521C64.22 59.0598 62.622 59.1966 60.99 59.1624C58.406 59.1624 56.23 58.7521 54.462 57.9658C52.796 57.2479 51.334 56.1197 50.178 54.7179C49.09 53.3846 48.308 51.8803 47.832 50.2393C47.356 48.6325 47.118 46.9573 47.118 45.2479C47.118 43.4017 47.39 41.5897 47.968 39.812C48.512 38.1026 49.362 36.5299 50.518 35.1282C51.64 33.7607 53.034 32.6667 54.632 31.8803C56.23 31.094 58.134 30.8205 60.31 30.8205C62.112 30.7863 63.914 31.1282 65.58 31.8803C66.974 32.4957 68.198 33.4188 69.15 34.6154C70.034 35.7778 70.748 37.0769 71.19 38.5128C71.632 39.8803 71.836 41.2821 71.836 42.6838C71.836 43.5043 71.802 44.2222 71.768 44.8718C71.7 45.5214 71.666 46 71.632 46.3077C71.598 46.547 71.394 46.7521 71.156 46.7521C70.952 46.7521 70.578 46.7863 70.034 46.8205C69.49 46.8889 68.844 46.9231 68.062 46.9231C67.28 46.9231 66.464 46.7863 65.58 46.7863ZM54.802 41.7949H61.976C62.86 41.7949 63.506 41.7949 63.914 41.7607C64.186 41.7265 64.458 41.6581 64.696 41.4872V41.1453C64.696 40.7009 64.628 40.2906 64.492 39.8803C63.88 37.9658 62.078 36.6667 60.072 36.735C58.202 36.6325 56.434 37.6239 55.55 39.3333C55.142 40.1197 54.904 40.9402 54.802 41.7949Z" fill="#9999FF"/>
</svg>
