<svg width="85" height="85" viewBox="0 0 85 85" fill="none" xmlns="http://www.w3.org/2000/svg">
<path d="M42.4575 78.9998C35.9913 78.9998 29.6394 77.2853 24.0429 74.0293C18.4464 70.7733 13.8464 66.0912 10.625 60.455L20.91 54.4737C23.0899 58.2877 26.2092 61.4852 29.9964 63.6885C33.7835 65.8918 38.1243 67.0373 42.5 67.0373L42.4575 78.9998Z" fill="#999999"/>
<path d="M42.5 67.0373H85V78.9998H42.5V67.0373Z" fill="#999999"/>
<path d="M0 67.0373H42.5V78.9998H0V67.0373Z" fill="#191919"/>
<path d="M74.2787 60.5498C71.0407 66.1764 66.3837 70.8448 60.7776 74.0841C55.1715 77.3234 48.9662 79.0191 42.5 78.9998V67.0373C46.8757 67.0503 51.0611 65.9176 54.8547 63.7256C58.6484 61.5335 61.7998 58.3744 63.9909 54.5669L74.2787 60.5498Z" fill="#191919"/>
<path d="M10.6202 23.4806C13.8534 17.8513 18.5063 13.1788 24.1096 9.93456C29.7129 6.69035 36.0338 4.98647 42.5 5.00008L42.4575 16.9653C38.0818 16.9561 33.8332 18.0925 30.0415 20.2879C26.2497 22.4833 23.1011 25.6452 20.9132 29.4545L10.6202 23.4806Z" fill="#666666"/>
<path d="M10.625 60.455C7.39189 54.8257 5.68825 48.42 5.69502 41.9198C5.70179 35.4196 7.41397 29.0362 10.6588 23.4137L20.9393 29.4092C18.7435 33.214 17.5849 37.5336 17.5803 41.9323C17.5757 46.331 18.7222 50.6644 20.91 54.4737L10.625 60.455Z" fill="#808080"/>
<path d="M42.5 5.00008C48.9662 5.00008 55.2756 6.80271 60.8721 10.0587C66.4686 13.3147 71.1118 17.997 74.3332 23.6332L64.0278 29.5854C61.8479 25.7714 58.7058 22.6029 54.9187 20.3995C51.1315 18.1962 46.8332 16.9653 42.4575 16.9653L42.5 5.00008Z" fill="#4C4C4C"/>
<path d="M74.2948 23.5661C77.5279 29.1954 79.2268 35.5825 79.22 42.0827C79.2132 48.5829 77.501 54.9664 74.2562 60.589L63.9757 54.5934C66.1715 50.7886 67.3301 46.4689 67.3347 42.0702C67.3393 37.6715 66.1896 33.3494 64.0018 29.54L74.2948 23.5661Z" fill="#333333"/>
</svg>
