<svg width="85" height="85" viewBox="0 0 85 85" fill="none" xmlns="http://www.w3.org/2000/svg">
<path d="M72.7529 18.3469L47.6471 3.34759C44.6487 1.5508 40.9512 1.5508 37.9529 3.34759L12.8471 18.3469C9.84875 20.128 8 23.4404 8 27.0183V57.0012C8 60.5792 9.84875 63.8915 12.8471 65.6727L37.9529 80.6563C39.4443 81.5469 41.1221 82 42.8 82C44.4779 82 46.1402 81.5469 47.6471 80.6563L72.7529 65.6727C75.7513 63.8759 77.6 60.5792 77.6 57.0012V27.0183C77.6 23.4404 75.7513 20.128 72.7529 18.3469Z" fill="white"/>
<path d="M72.7529 18.3469L47.6471 3.34759C46.1557 2.45701 44.4779 2.00391 42.8 2.00391C41.1221 2.00391 39.4598 2.45701 37.9529 3.34759L12.8471 18.3469C9.84875 20.128 8 23.4404 8 27.0183V57.0012C8 60.5792 9.84875 63.8915 12.8471 65.6727L37.9529 80.6563C39.4443 81.5469 41.1221 82 42.8 82C44.4779 82 46.1402 81.5469 47.6471 80.6563L72.7529 65.6727C75.7513 63.8759 77.6 60.5792 77.6 57.0012V27.0183C77.6 23.4404 75.7513 20.128 72.7529 18.3469ZM38.8384 79.1251L13.7327 64.1415C11.278 62.6728 9.75554 59.9386 9.75554 57.0012V27.0183C9.75554 24.081 11.278 21.3467 13.7327 19.878L38.8384 4.89439C40.0502 4.17568 41.4173 3.80069 42.8 3.80069C44.1827 3.80069 45.5654 4.17568 46.7616 4.89439L71.8673 19.878C73.9336 21.1123 75.3318 23.2529 75.7202 25.659C74.8813 23.8778 73.017 23.3779 70.8264 24.6747L47.0723 39.4396C44.105 41.1739 41.93 43.1425 41.93 46.7205V76.1565C41.93 78.3127 42.7845 79.7032 44.1205 80.1095C43.6855 80.1876 43.2505 80.2345 42.8 80.2345C41.4173 80.2188 40.0346 79.8439 38.8384 79.1251Z" fill="#283037"/>
<path d="M66.1812 59.8917L59.9204 63.6572C59.7495 63.7509 59.6252 63.8603 59.6252 64.0634V65.7039C59.6252 65.907 59.765 65.9852 59.9204 65.8914L66.2745 62.0166C66.4454 61.9229 66.4609 61.7354 66.4609 61.5323V60.0792C66.4764 59.8761 66.3366 59.798 66.1812 59.8917Z" fill="#4DA825"/>
<path d="M52.8671 46.0486C53.0691 45.9393 53.24 46.0799 53.24 46.3455L53.2555 48.5173C54.1566 48.1579 54.9489 48.0642 55.6636 48.2204C55.8189 48.2673 55.8811 48.4704 55.8189 48.7204L55.3373 50.6422C55.3063 50.7828 55.213 50.939 55.1198 51.0328C55.0732 51.0796 55.0421 51.1109 54.9955 51.1265C54.9334 51.1578 54.8713 51.1734 54.8091 51.1578C54.4829 51.0796 53.7061 50.9078 52.4943 51.5327C51.2204 52.189 50.7698 53.2983 50.7854 54.1264C50.8009 55.1107 51.298 55.4232 53.038 55.4388C55.3529 55.47 56.3627 56.5013 56.3782 58.8449C56.4093 61.1573 55.182 63.6259 53.3021 65.1571L53.3488 67.3132C53.3488 67.5788 53.1779 67.8757 52.9759 67.9694L51.702 68.7038C51.5 68.8132 51.3291 68.6882 51.3291 68.4225L51.3136 66.2976C50.2261 66.7507 49.123 66.8601 48.4239 66.5789C48.2841 66.532 48.2375 66.3289 48.2841 66.1102L48.7502 64.1571C48.7813 64.0009 48.8745 63.8446 48.9832 63.7509C49.0298 63.7196 49.0609 63.6884 49.1075 63.6572C49.1852 63.6259 49.2473 63.6103 49.3095 63.6415C50.0707 63.8915 51.0339 63.7821 51.9661 63.2978C53.1468 62.6885 53.9391 61.4854 53.9236 60.2667C53.908 59.173 53.3177 58.7199 51.8884 58.7043C50.0707 58.7043 48.3618 58.3449 48.3307 55.6419C48.3152 53.4233 49.4648 51.1109 51.2825 49.6422L51.267 47.4704C51.267 47.2048 51.4223 46.908 51.6398 46.7986L52.8671 46.0486Z" fill="white"/>
</svg>
