<svg width="85" height="85" viewBox="0 0 85 85" fill="none" xmlns="http://www.w3.org/2000/svg">
<path fill-rule="evenodd" clip-rule="evenodd" d="M41.2983 2.5453C42.5991 1.81958 44.2007 1.81958 45.4996 2.5453C51.9271 6.13196 71.2688 16.9281 77.6982 20.5148C78.999 21.2386 79.7998 22.5796 79.7998 24.031C79.7998 31.2043 79.7998 52.7948 79.7998 59.9681C79.7998 61.4195 78.999 62.7605 77.6982 63.4862C71.2708 67.0729 51.929 77.8691 45.4996 81.4557C44.1988 82.1814 42.5972 82.1814 41.2983 81.4557C34.8708 77.8691 15.5291 67.0729 9.0997 63.4862C7.8008 62.7605 7 61.4214 7 59.97C7 52.7967 7 31.2062 7 24.0329C7 22.5815 7.8008 21.2405 9.10162 20.5148C15.5272 16.9281 34.8728 6.13196 41.2983 2.5453Z" fill="#004482"/>
<path fill-rule="evenodd" clip-rule="evenodd" d="M7.5824 61.8176C7.0728 61.1395 7 60.4957 7 59.6291C7 52.4976 7 31.031 7 23.8977C7 22.4539 7.79888 21.1205 9.09587 20.4005C15.5003 16.8348 34.777 6.10149 41.1814 2.53387C42.4784 1.81197 44.2352 1.8272 45.5322 2.54911C51.9367 6.11482 71.1481 16.7567 77.5526 20.3224C78.0699 20.612 78.4645 20.9605 78.817 21.4196L7.5824 61.8176Z" fill="#659AD2"/>
<path fill-rule="evenodd" clip-rule="evenodd" d="M43.3999 15.3339C58.2032 15.3339 70.2209 27.2824 70.2209 42.0005C70.2209 56.7186 58.2032 68.6672 43.3999 68.6672C28.5966 68.6672 16.5789 56.7186 16.5789 42.0005C16.5789 27.2824 28.5966 15.3339 43.3999 15.3339ZM43.3999 28.6672C50.8006 28.6672 56.8104 34.6405 56.8104 42.0005C56.8104 49.3586 50.8006 55.3338 43.3999 55.3338C35.9992 55.3338 29.9894 49.3586 29.9894 42.0005C29.9894 34.6405 35.9973 28.6672 43.3999 28.6672Z" fill="white"/>
<path fill-rule="evenodd" clip-rule="evenodd" d="M78.8132 21.4386C79.8017 22.3586 79.7826 23.7453 79.7826 24.8367C79.7826 32.0653 79.7213 52.6253 79.7998 59.8538C79.8075 60.6081 79.5565 61.4024 79.181 62.0005L42.6202 42.0005L78.8132 21.4386Z" fill="#00599C"/>
</svg>
