<svg width="32" height="32" viewBox="0 0 32 32" fill="none" xmlns="http://www.w3.org/2000/svg">
<path d="M31.3928 9.98148L16.7678 0.231447C16.2686 -0.0757412 15.7358 -0.0785537 15.2321 0.231447L0.607124 9.98148C0.232125 10.2314 0 10.6779 0 11.1243V20.8743C0 21.3207 0.232125 21.7671 0.607186 22.0171L15.2322 31.7686C15.7313 32.0757 16.2641 32.0786 16.7678 31.7686L31.3928 22.0171C31.7678 21.7672 32 21.3207 32 20.8743V11.1243C31.9999 10.6779 31.7678 10.2314 31.3928 9.98148ZM17.375 3.94565L28.1428 11.1243L23.3393 14.3386L17.375 10.3564V3.94565ZM14.625 3.94565V10.3564L8.66067 14.3386L3.85712 11.1243L14.625 3.94565ZM2.74999 13.6957L6.19643 15.9993L2.74999 18.3029V13.6957ZM14.625 28.053L3.85712 20.8743L8.66067 17.66L14.625 21.6422V28.053ZM16 19.2493L11.1428 15.9993L16 12.7493L20.8571 15.9993L16 19.2493ZM17.375 28.053V21.6422L23.3393 17.66L28.1428 20.8743L17.375 28.053ZM29.2499 18.3029L25.8035 15.9993L29.2499 13.6957V18.3029Z" fill="black"/>
</svg>
