<svg width="85" height="85" viewBox="0 0 85 85" fill="none" xmlns="http://www.w3.org/2000/svg">
<g clip-path="url(#clip0_812_152)">
<path d="M26.1538 46.5468C22.5577 46.5468 19.4781 45.2016 16.915 42.5112C14.3563 39.8254 13.0769 36.5951 13.0769 32.8203C13.0769 29.0455 14.3563 25.8129 16.915 23.1225C19.4781 20.4367 22.5577 19.0938 26.1538 19.0938C29.75 19.0938 32.8274 20.4367 35.3862 23.1225C37.9492 25.8129 39.2308 29.0455 39.2308 32.8203C39.2308 36.5951 37.9492 39.8254 35.3862 42.5112C32.8274 45.2016 29.75 46.5468 26.1538 46.5468ZM0 73.9999V70.0535C0 67.3082 0.708333 64.7917 2.125 62.5039C3.54167 60.2162 5.5032 58.5004 8.00961 57.3565C10.8429 56.0982 13.7569 55.1259 16.7515 54.4396C19.7505 53.7533 22.8846 53.4101 26.1538 53.4101C29.4231 53.4101 32.5572 53.7533 35.5562 54.4396C38.5508 55.1259 41.4647 56.0982 44.2981 57.3565C46.8045 58.5004 48.766 60.2162 50.1827 62.5039C51.5994 64.7917 52.3077 67.3082 52.3077 70.0535V73.9999H0Z" fill="#191919"/>
<path d="M67.0195 62.1609L74.0484 69.5389C77.7535 65.3065 80.5062 60.6166 82.3065 55.4692C84.1024 50.3217 85.0003 45.0599 85.0003 39.6836C85.0003 34.3074 84.1024 29.073 82.3065 23.9805C80.5062 18.8925 77.7535 14.2324 74.0484 10L67.0195 17.378C69.7439 20.5809 71.7882 24.0972 73.1526 27.9269C74.5126 31.7611 75.1926 35.6801 75.1926 39.6836C75.1926 43.6872 74.5126 47.6336 73.1526 51.5228C71.7882 55.412 69.7439 58.958 67.0195 62.1609Z" fill="#4C4C4C"/>
<path d="M53.2881 47.5759L60.1535 54.7824C61.8971 52.4946 63.2048 50.0627 64.0765 47.4867C64.9483 44.9153 65.3842 42.3141 65.3842 39.6832C65.3842 37.0523 64.9483 34.4213 64.0765 31.7904C63.2048 29.1595 61.8971 26.7574 60.1535 24.584L53.2881 31.962C54.1599 33.1059 54.7592 34.3344 55.0862 35.6476C55.4131 36.9653 55.5766 38.3105 55.5766 39.6832C55.5766 41.0558 55.4131 42.3987 55.0862 43.7119C54.7592 45.0297 54.1599 46.3177 53.2881 47.5759Z" fill="#333333"/>
</g>
<defs>
<clipPath id="clip0_812_152">
<rect width="85" height="85" fill="white"/>
</clipPath>
</defs>
</svg>
