<svg width="85" height="85" viewBox="0 0 85 85" fill="none" xmlns="http://www.w3.org/2000/svg">
<path d="M42.5 80C40.8563 80 39.3707 79.6048 38.0431 78.8144C36.7155 78.0215 35.6724 76.96 34.9138 75.63C32.8276 75.63 31.0423 74.8865 29.5579 73.3994C28.071 71.9098 27.3276 70.12 27.3276 68.03V54.54C23.5977 52.07 20.6113 48.8083 18.3683 44.755C16.1228 40.7017 15 36.3 15 31.55C15 23.8867 17.6703 17.3785 23.011 12.0256C28.3543 6.6752 34.8506 4 42.5 4C50.1494 4 56.6445 6.6752 61.9852 12.0256C67.3284 17.3785 70 23.8867 70 31.55C70 36.4267 68.8785 40.86 66.6355 44.85C64.39 48.84 61.4023 52.07 57.6724 54.54V68.03C57.6724 70.12 56.9302 71.9098 55.4459 73.3994C53.959 74.8865 52.1724 75.63 50.0862 75.63C49.3276 76.96 48.2845 78.0215 46.9569 78.8144C45.6293 79.6048 44.1437 80 42.5 80ZM34.9138 68.03H50.0862V64.61H34.9138V68.03ZM34.9138 60.81H50.0862V57.2H34.9138V60.81ZM34.1552 49.6H39.6552V39.34L31.3103 30.98L35.2931 26.99L42.5 34.21L49.7069 26.99L53.6897 30.98L45.3448 39.34V49.6H50.8448C54.2586 47.9533 57.0402 45.5302 59.1897 42.3306C61.3391 39.1335 62.4138 35.54 62.4138 31.55C62.4138 25.9767 60.4856 21.2583 56.6293 17.395C52.773 13.5317 48.0632 11.6 42.5 11.6C36.9368 11.6 32.227 13.5317 28.3707 17.395C24.5144 21.2583 22.5862 25.9767 22.5862 31.55C22.5862 35.54 23.6609 39.1335 25.8103 42.3306C27.9598 45.5302 30.7414 47.9533 34.1552 49.6Z" fill="#1C1B1F"/>
<rect x="39.5996" y="39" width="5.75" height="10.6" fill="#333333"/>
<rect x="31.2988" y="30.9902" width="5.66445" height="12.393" transform="rotate(-45 31.2988 30.9902)" fill="#333333"/>
<rect width="5.64028" height="15.0992" transform="matrix(-0.707107 -0.707107 -0.707107 0.707107 53.709 30.9746)" fill="#333333"/>
</svg>
