<svg width="85" height="85" viewBox="0 0 85 85" fill="none" xmlns="http://www.w3.org/2000/svg">
<path d="M78.4 2L71.9864 73.9916L43.1569 82L14.4068 74.0029L8 2H78.4Z" fill="#264DE4"/>
<path d="M66.4956 69.4075L71.9765 7.88731H43.2V75.8788L66.4956 69.4075Z" fill="#2965F1"/>
<path d="M22.6875 34.5922L23.4774 43.4229H43.2V34.5922H22.6875Z" fill="#EBEBEB"/>
<path d="M43.2 16.7183H43.1695H21.1003L21.9015 25.5492H43.2V16.7183Z" fill="#EBEBEB"/>
<path d="M43.2 66.7147V57.5269L43.1614 57.5372L33.3459 54.8815L32.7184 47.8385H23.8712L25.106 61.7042L43.1594 66.7259L43.2 66.7147Z" fill="#EBEBEB"/>
<path d="M54.0222 43.4229L52.9992 54.8759L43.1695 57.5342V66.7217L61.2374 61.7042L63.441 36.9635L63.656 34.5922L65.2471 16.7183H43.1695L43.1695 25.5492H55.5884L54.7865 34.5922H43.1695V43.4229H54.0222Z" fill="white"/>
</svg>
