<svg width="32" height="32" viewBox="0 0 32 32" fill="none" xmlns="http://www.w3.org/2000/svg">
<path d="M16 1.06375C24.25 1.06375 30.925 7.74658 30.925 15.9937C30.925 24.2409 24.25 30.9363 16 30.9363C7.75001 30.9363 1.07501 24.2534 1.07501 16.0063C1.07501 7.75909 7.75001 1.06375 16 1.06375Z" fill="#E74D89"/>
<path d="M16 32C7.175 32 0 24.8291 0 16.0063C0 7.1709 7.175 0 16 0C24.825 0 32 7.1709 32 15.9937C32 24.8166 24.825 32 16 32ZM29.4875 18.1838C29.025 18.0336 25.2625 16.9198 20.975 17.5956C22.7625 22.5014 23.4875 26.5061 23.625 27.332C26.7 25.2671 28.8875 21.9883 29.4875 18.1838ZM21.3375 28.596C21.1375 27.3946 20.3375 23.2147 18.425 18.2339C18.4 18.2464 18.3625 18.2589 18.3375 18.2589C10.625 20.9496 7.8625 26.2933 7.6125 26.7939C9.925 28.596 12.8375 29.6723 16 29.6723C17.8875 29.6848 19.7 29.2968 21.3375 28.596ZM5.85 25.1545C6.1625 24.6289 9.9125 18.4216 16.9625 16.1314C17.1375 16.0688 17.325 16.0188 17.5 15.9687C17.1625 15.1928 16.7875 14.4169 16.3875 13.6535C9.5625 15.6934 2.9375 15.6058 2.3375 15.5933C2.3375 15.7309 2.325 15.8686 2.325 16.0063C2.3375 19.5229 3.6625 22.7266 5.85 25.1545ZM2.625 13.2155C3.2375 13.228 8.8625 13.253 15.2625 11.551C13 7.52132 10.55 4.14235 10.2 3.65428C6.3625 5.45639 3.5125 8.98553 2.625 13.2155ZM12.8 2.7282C13.175 3.22878 15.6625 6.60774 17.9 10.7251C22.7625 8.89793 24.8125 6.1447 25.0625 5.79429C22.65 3.65428 19.475 2.35276 16 2.35276C14.9 2.35276 13.825 2.49042 12.8 2.7282ZM26.575 7.37114C26.2875 7.75909 24 10.7 18.95 12.765C19.2625 13.4157 19.575 14.079 19.8625 14.7423C19.9625 14.9801 20.0625 15.2178 20.1625 15.4431C24.7125 14.8674 29.225 15.7935 29.675 15.8811C29.6375 12.6648 28.4875 9.69887 26.575 7.37114Z" fill="#B2215A"/>
</svg>
