<svg width="89" height="85" viewBox="0 0 89 85" fill="none" xmlns="http://www.w3.org/2000/svg">
<path d="M6.7134 70.5641L10.6296 77.3846C11.4433 78.8205 12.6131 79.9487 13.9863 80.7692L27.9725 56.359H0C0 57.9487 0.406873 59.5385 1.22062 60.9744L6.7134 70.5641Z" fill="#0066DA"/>
<path d="M44.4 27.641L30.4137 3.23077C29.0405 4.05128 27.8708 5.17949 27.057 6.61538L1.22062 51.7436C0.421839 53.1485 0.00106353 54.7396 0 56.359H27.9725L44.4 27.641Z" fill="#00AC47"/>
<path d="M74.8137 80.7692C76.1869 79.9487 77.3567 78.8205 78.1704 77.3846L79.7979 74.5641L87.5794 60.9744C88.3931 59.5385 88.8 57.9487 88.8 56.359H60.8255L66.778 68.1538L74.8137 80.7692Z" fill="#EA4335"/>
<path d="M44.4 27.641L58.3863 3.23077C57.0131 2.41026 55.4364 2 53.8089 2H34.9911C33.3636 2 31.7869 2.46154 30.4137 3.23077L44.4 27.641Z" fill="#00832D"/>
<path d="M60.8275 56.359H27.9725L13.9863 80.7692C15.3594 81.5898 16.9361 82 18.5636 82H70.2364C71.8639 82 73.4406 81.5385 74.8137 80.7692L60.8275 56.359Z" fill="#2684FC"/>
<path d="M74.6612 29.1795L61.743 6.61538C60.9292 5.17949 59.7595 4.05128 58.3863 3.23077L44.4 27.641L60.8275 56.359H88.7491C88.7491 54.7692 88.3423 53.1795 87.5285 51.7436L74.6612 29.1795Z" fill="#FFBA00"/>
</svg>
