<svg width="85" height="85" viewBox="0 0 85 85" fill="none" xmlns="http://www.w3.org/2000/svg">
<path d="M29.4 82C36.7968 82 42.8 76.0267 42.8 68.6667V55.3333H29.4C22.0032 55.3333 16 61.3067 16 68.6667C16 76.0267 22.0032 82 29.4 82Z" fill="#0ACF83"/>
<path d="M16 42C16 34.64 22.0032 28.6667 29.4 28.6667H42.8V55.3333H29.4C22.0032 55.3333 16 49.36 16 42Z" fill="#A259FF"/>
<path d="M16 15.3333C16 7.97333 22.0032 2 29.4 2H42.8V28.6667H29.4C22.0032 28.6667 16 22.6933 16 15.3333Z" fill="#F24E1E"/>
<path d="M42.8 2H56.2C63.5968 2 69.6 7.97333 69.6 15.3333C69.6 22.6933 63.5968 28.6667 56.2 28.6667H42.8V2Z" fill="#FF7262"/>
<path d="M69.6 42C69.6 49.36 63.5968 55.3333 56.2 55.3333C48.8032 55.3333 42.8 49.36 42.8 42C42.8 34.64 48.8032 28.6667 56.2 28.6667C63.5968 28.6667 69.6 34.64 69.6 42Z" fill="#1ABCFE"/>
</svg>
