<svg width="85" height="85" viewBox="0 0 85 85" fill="none" xmlns="http://www.w3.org/2000/svg">
<path d="M81.4917 38.4368L46.5608 3.5088C44.551 1.49707 41.2886 1.49707 39.2762 3.5088L32.0232 10.7628L41.2234 19.9634C43.3622 19.2412 45.8137 19.7254 47.5178 21.4299C49.2308 23.145 49.7115 25.6176 48.9712 27.7637L57.8386 36.6314C59.9839 35.8921 62.4591 36.3697 64.1721 38.0858C66.567 40.4801 66.567 44.3599 64.1721 46.7548C61.7768 49.1505 57.8972 49.1505 55.5006 46.7548C53.6998 44.9525 53.2544 42.3066 54.1665 40.0877L45.8967 31.8176L45.896 53.5803C46.4799 53.8694 47.0309 54.2552 47.5175 54.7396C49.9117 57.1337 49.9117 61.0127 47.5175 63.4107C45.1226 65.8047 41.2412 65.8047 38.8488 63.4107C36.4543 61.0129 36.4543 57.1339 38.8488 54.7396C39.4406 54.1489 40.1254 53.7017 40.856 53.402V31.4371C40.125 31.1386 39.4411 30.6948 38.8484 30.0993C37.0346 28.2869 36.5978 25.6247 37.528 23.3973L28.4584 14.326L4.50922 38.2754C2.49693 40.2887 2.49693 43.5513 4.50922 45.5631L39.438 80.4912C41.4489 82.5029 44.7102 82.5029 46.724 80.4912L81.4913 45.7282C83.5029 43.7154 83.5029 40.4519 81.4913 38.4397" fill="#F05133"/>
</svg>
