<svg width="85" height="85" viewBox="0 0 85 85" fill="none" xmlns="http://www.w3.org/2000/svg">
<path fill-rule="evenodd" clip-rule="evenodd" d="M42.8 2C20.258 2 2 20.3528 2 43.0118C2 61.1595 13.679 76.4876 29.897 81.9217C31.937 82.2805 32.702 81.0502 32.702 79.9736C32.702 78.9996 32.651 75.7699 32.651 72.3352C22.4 74.232 19.748 69.8232 18.932 67.5163C18.473 66.3372 16.484 62.6974 14.75 61.7234C13.322 60.9544 11.282 59.0576 14.699 59.0063C17.912 58.9551 20.207 61.9797 20.972 63.21C24.644 69.4131 30.509 67.6701 32.855 66.5935C33.212 63.9277 34.283 62.1335 35.456 61.1082C26.378 60.0829 16.892 56.5456 16.892 40.8586C16.892 36.3986 18.473 32.7075 21.074 29.8367C20.666 28.8114 19.238 24.6077 21.482 18.9686C21.482 18.9686 24.899 17.8921 32.702 23.1723C35.966 22.2496 39.434 21.7882 42.902 21.7882C46.37 21.7882 49.838 22.2496 53.102 23.1723C60.905 17.8408 64.322 18.9686 64.322 18.9686C66.566 24.6077 65.138 28.8114 64.73 29.8367C67.331 32.7075 68.912 36.3473 68.912 40.8586C68.912 56.5969 59.375 60.0829 50.297 61.1082C51.776 62.3898 53.051 64.8505 53.051 68.6954C53.051 74.1807 53 78.5894 53 79.9736C53 81.0502 53.765 82.3318 55.805 81.9217C71.921 76.4876 83.6 61.1082 83.6 43.0118C83.6 20.3528 65.342 2 42.8 2Z" fill="#1B1F23"/>
</svg>
