<svg width="85" height="85" viewBox="0 0 85 85" fill="none" xmlns="http://www.w3.org/2000/svg">
<path d="M23.2286 64.4L3.91429 49.0857L13.5143 31.2571L41.0571 42L23.2286 64.4Z" fill="url(#paint0_linear_526_171)"/>
<path d="M83 23.3714L81.5143 69.6571L50.7714 82L32.2571 70.1143L59.3429 42L47.4571 16.0571L58.0857 3.25714L83 23.3714Z" fill="url(#paint1_linear_526_171)"/>
<path d="M83 23.3714L58.6571 52.1714L47.4571 16.0571L58.0857 3.25714L83 23.3714Z" fill="url(#paint2_linear_526_171)"/>
<path d="M41.5143 68.4L9.4 80.0571L14.5429 62L21.2857 39.8286L3 33.6571L14.5429 2L39.6857 5.08571L64.3714 33.3143L41.5143 68.4Z" fill="url(#paint3_linear_526_171)"/>
<path d="M68.0286 17.4286H18.6571V66.8H68.0286V17.4286Z" fill="black"/>
<path d="M41.7429 57.5429H23.2286V60.6286H41.7429V57.5429Z" fill="white"/>
<path d="M36.6 27.6V23.8286H26.3143V27.6H29.2857V40.5143H26.3143V44.2857H36.6V40.5143H33.7429V27.6H36.6Z" fill="white"/>
<path d="M46.4286 44.6286C44.8286 44.6286 43.4571 44.2857 42.4286 43.7143C41.4 43.1429 40.4857 42.3429 39.8 41.5429L42.6571 38.3429C43.2286 39.0286 43.8 39.4857 44.3714 39.8286C44.9429 40.1714 45.6286 40.4 46.3143 40.4C47.1143 40.4 47.8 40.1714 48.3714 39.6C48.8286 39.0286 49.0571 38.2286 49.0571 36.9714V23.8286H53.6286V37.2C53.6286 38.4571 53.5143 39.4857 53.1714 40.4C52.8286 41.3143 52.3714 42 51.6857 42.6857C51.1143 43.2571 50.3143 43.8286 49.4 44.0571C48.4857 44.4 47.5714 44.6286 46.4286 44.6286Z" fill="white"/>
<defs>
<linearGradient id="paint0_linear_526_171" x1="2.97489" y1="41.9705" x2="83.0423" y2="41.9705" gradientUnits="userSpaceOnUse">
<stop offset="0.2581" stop-color="#F97A12"/>
<stop offset="0.4591" stop-color="#B07B58"/>
<stop offset="0.7241" stop-color="#577BAE"/>
<stop offset="0.9105" stop-color="#1E7CE5"/>
<stop offset="1" stop-color="#087CFA"/>
</linearGradient>
<linearGradient id="paint1_linear_526_171" x1="3.30162" y1="29.611" x2="75.9886" y2="92.0247" gradientUnits="userSpaceOnUse">
<stop stop-color="#F97A12"/>
<stop offset="0.0717995" stop-color="#CB7A3E"/>
<stop offset="0.1541" stop-color="#9E7B6A"/>
<stop offset="0.242" stop-color="#757B91"/>
<stop offset="0.3344" stop-color="#537BB1"/>
<stop offset="0.4324" stop-color="#387CCC"/>
<stop offset="0.5381" stop-color="#237CE0"/>
<stop offset="0.6552" stop-color="#147CEF"/>
<stop offset="0.7925" stop-color="#0B7CF7"/>
<stop offset="1" stop-color="#087CFA"/>
</linearGradient>
<linearGradient id="paint2_linear_526_171" x1="65.5793" y1="80.1594" x2="44.2788" y2="-7.43341" gradientUnits="userSpaceOnUse">
<stop stop-color="#FE315D"/>
<stop offset="0.0784025" stop-color="#CB417E"/>
<stop offset="0.1601" stop-color="#9E4E9B"/>
<stop offset="0.2474" stop-color="#755BB4"/>
<stop offset="0.3392" stop-color="#5365CA"/>
<stop offset="0.4365" stop-color="#386DDB"/>
<stop offset="0.5414" stop-color="#2374E9"/>
<stop offset="0.6576" stop-color="#1478F3"/>
<stop offset="0.794" stop-color="#0B7BF8"/>
<stop offset="1" stop-color="#087CFA"/>
</linearGradient>
<linearGradient id="paint3_linear_526_171" x1="18.9708" y1="21.2949" x2="64.9283" y2="117.978" gradientUnits="userSpaceOnUse">
<stop stop-color="#FE315D"/>
<stop offset="0.0402328" stop-color="#F63462"/>
<stop offset="0.1037" stop-color="#DF3A71"/>
<stop offset="0.1667" stop-color="#C24383"/>
<stop offset="0.2912" stop-color="#AD4A91"/>
<stop offset="0.5498" stop-color="#755BB4"/>
<stop offset="0.9175" stop-color="#1D76ED"/>
<stop offset="1" stop-color="#087CFA"/>
</linearGradient>
</defs>
</svg>
