<svg width="85" height="85" viewBox="0 0 85 85" fill="none" xmlns="http://www.w3.org/2000/svg">
<path d="M32.066 63.8684C32.066 63.8684 28.9986 65.6462 34.249 66.2478C40.6097 66.971 43.8605 66.8673 50.8701 65.5451C50.8701 65.5451 52.7129 66.6968 55.2866 67.6942C39.5731 74.4062 19.7239 67.3055 32.066 63.8684Z" fill="#5382A1"/>
<path d="M30.1459 55.1097C30.1459 55.1097 26.7055 57.6478 31.9598 58.1895C38.7545 58.8881 44.1204 58.9452 53.4055 57.1633C53.4055 57.1633 54.6897 58.4609 56.7091 59.1706C37.7106 64.7074 16.5496 59.6072 30.1459 55.1097Z" fill="#5382A1"/>
<path d="M46.333 40.252C50.2048 44.6948 45.3157 48.6927 45.3157 48.6927C45.3157 48.6927 55.1469 43.6345 50.6319 37.3005C46.415 31.3937 43.1812 28.4588 60.6876 18.3397C60.6876 18.3397 33.2083 25.1798 46.333 40.252Z" fill="#F8981D"/>
<path d="M67.1153 70.3469C67.1153 70.3469 69.3853 72.211 64.6154 73.6531C55.5454 76.3915 26.865 77.2184 18.8976 73.7622C16.0336 72.5204 21.4045 70.7971 23.094 70.4355C24.8559 70.0547 25.8628 70.1256 25.8628 70.1256C22.6777 67.8894 5.27561 74.5167 17.0234 76.4146C49.0614 81.5928 75.4256 74.0828 67.1153 70.3469Z" fill="#5382A1"/>
<path d="M33.5411 46.0346C33.5411 46.0346 18.9524 49.4881 28.3749 50.7422C32.3533 51.2731 40.2843 51.153 47.6718 50.536C53.7092 50.0285 59.7716 48.9493 59.7716 48.9493C59.7716 48.9493 57.6427 49.8579 56.1025 50.9061C41.2879 54.7893 12.6689 52.9828 20.908 49.0107C27.8757 45.6539 33.5411 46.0346 33.5411 46.0346Z" fill="#5382A1"/>
<path d="M59.7114 60.614C74.7711 52.8146 67.8081 45.3194 62.948 46.3292C61.7568 46.5763 61.2256 46.7904 61.2256 46.7904C61.2256 46.7904 61.6679 46.1 62.5125 45.8011C72.1273 42.4322 79.5217 55.7374 59.4087 61.007C59.4087 61.007 59.6418 60.7996 59.7114 60.614Z" fill="#5382A1"/>
<path d="M50.6319 2C50.6319 2 58.9722 10.3152 42.7215 23.1016C29.6901 33.3584 39.7499 39.2066 42.716 45.8885C35.1094 39.0484 29.5271 33.027 33.2722 27.4229C38.769 19.1966 53.997 15.2082 50.6319 2Z" fill="#F8981D"/>
<path d="M35.0209 81.7485C49.4763 82.6708 71.6743 81.2368 72.2 74.4198C72.2 74.4198 71.1894 77.0041 60.2534 79.0564C47.9154 81.3705 32.6982 81.1004 23.6727 79.6173C23.6727 79.6173 25.5203 81.1413 35.0209 81.7485Z" fill="#5382A1"/>
</svg>
