<svg width="85" height="85" viewBox="0 0 85 85" fill="none" xmlns="http://www.w3.org/2000/svg">
<path d="M83 2H3V82H83V2Z" fill="#F7DF1E"/>
<path d="M56.7397 64.5003C58.3511 67.1314 60.4476 69.0654 64.1556 69.0654C67.2705 69.0654 69.2603 67.5086 69.2603 65.3575C69.2603 62.7797 67.2159 61.8667 63.7873 60.367L61.9079 59.5606C56.4832 57.2495 52.8794 54.3543 52.8794 48.2337C52.8794 42.5956 57.1752 38.3035 63.8889 38.3035C68.6686 38.3035 72.1048 39.967 74.581 44.3225L68.727 48.0813C67.4381 45.7702 66.0476 44.8597 63.8889 44.8597C61.687 44.8597 60.2914 46.2565 60.2914 48.0813C60.2914 50.3365 61.6883 51.2495 64.9137 52.6464L66.793 53.4514C73.1803 56.1905 76.7867 58.9829 76.7867 65.261C76.7867 72.0292 71.4698 75.7371 64.3295 75.7371C57.3479 75.7371 52.8375 72.4102 50.6305 68.0495L56.7397 64.5003ZM30.1835 65.1518C31.3644 67.247 32.4387 69.0184 35.0216 69.0184C37.4914 69.0184 39.0495 68.0521 39.0495 64.2946V38.7327H46.567V64.3962C46.567 72.1803 42.0032 75.7232 35.3416 75.7232C29.3225 75.7232 25.8368 72.6083 24.0641 68.8565L30.1835 65.1518Z" fill="black"/>
</svg>
