<svg width="32" height="32" viewBox="0 0 32 32" fill="none" xmlns="http://www.w3.org/2000/svg">
<path fill-rule="evenodd" clip-rule="evenodd" d="M3.55556 32H28.4444C30.4081 32 32 30.4081 32 28.4444V3.55556C32 1.59188 30.4081 0 28.4444 0H3.55556C1.59188 0 0 1.59188 0 3.55556V28.4444C0 30.4081 1.59188 32 3.55556 32Z" fill="#007EBB"/>
<path fill-rule="evenodd" clip-rule="evenodd" d="M27.5556 27.5556H22.8069V19.4676C22.8069 17.2501 21.9644 16.0109 20.2092 16.0109C18.2998 16.0109 17.3023 17.3005 17.3023 19.4676V27.5556H12.7259V12.1481H17.3023V14.2235C17.3023 14.2235 18.6782 11.6774 21.9478 11.6774C25.2159 11.6774 27.5556 13.6731 27.5556 17.8005V27.5556ZM7.26638 10.1307C5.70758 10.1307 4.44444 8.85763 4.44444 7.28756C4.44444 5.71749 5.70758 4.44444 7.26638 4.44444C8.82517 4.44444 10.0876 5.71749 10.0876 7.28756C10.0876 8.85763 8.82517 10.1307 7.26638 10.1307ZM4.90336 27.5556H9.67529V12.1481H4.90336V27.5556Z" fill="white"/>
</svg>
