<svg width="85" height="85" viewBox="0 0 85 85" fill="none" xmlns="http://www.w3.org/2000/svg">
<path d="M46.6535 2.31747L52.85 16.2041V64.4765L46.748 81.6694L69.8195 75.2286C71.5404 74.7443 73.0542 73.7253 74.1328 72.3251C75.2114 70.925 75.7965 69.2195 75.8 67.4654V16.5215C75.8008 14.7628 75.2159 13.052 74.1342 11.6485C73.0524 10.2451 71.5328 9.22565 69.806 8.74497L46.6535 2.31747Z" fill="url(#paint0_linear_526_155)"/>
<path d="M17.399 63.9607L24.149 60.3898C25.0747 59.8914 25.8465 59.1581 26.3833 58.2669C26.9201 57.3757 27.2022 56.3594 27.2 55.3245V29.3368C27.2013 28.153 27.5735 26.9982 28.2665 26.0284C28.9594 25.0587 29.9396 24.3207 31.0745 23.9144L52.85 16.2041V10.3452C52.8475 8.52935 52.2414 6.76367 51.1234 5.31527C50.0054 3.86686 48.4363 2.81454 46.6535 2.31747C45.8943 2.10389 45.1079 1.99702 44.318 2.00006C42.8322 2.00339 41.3724 2.38143 40.079 3.09776L15.158 17.024C13.8952 17.729 12.8453 18.7488 12.115 19.9799C11.3847 21.211 11 22.6095 11 24.0334V60.2179C10.9981 60.9544 11.1918 61.6787 11.5621 62.3196C11.9324 62.9606 12.4665 63.4961 13.112 63.8737C13.7575 64.2512 14.4921 64.4578 15.2438 64.473C15.9954 64.4883 16.7381 64.3117 17.399 63.9607Z" fill="url(#paint1_linear_526_155)"/>
<path d="M52.85 64.4765H27.1055C26.1546 64.4864 25.2332 64.8016 24.4826 65.3738C23.7321 65.9459 23.1937 66.7433 22.9501 67.6439C22.7065 68.5445 22.7711 69.4984 23.1339 70.3596C23.4968 71.2208 24.1379 71.9416 24.959 72.4116L40.295 80.9287C41.5582 81.6322 42.9865 82.0014 44.4395 82C45.2213 81.9995 45.9988 81.8881 46.748 81.6694C48.5091 81.1792 50.0583 80.1386 51.1599 78.7061C52.2615 77.2736 52.855 75.5277 52.85 73.7342V64.4765Z" fill="url(#paint2_linear_526_155)"/>
<path d="M17.399 63.9607L24.149 60.3898C25.0747 59.8914 25.8465 59.1581 26.3833 58.2669C26.9201 57.3757 27.2022 56.3594 27.2 55.3245V29.3368C27.2013 28.153 27.5735 26.9982 28.2665 26.0284C28.9594 25.0587 29.9396 24.3207 31.0745 23.9144L52.85 16.2041V10.3452C52.8475 8.52935 52.2414 6.76367 51.1234 5.31527C50.0054 3.86686 48.4363 2.81454 46.6535 2.31747C45.8943 2.10389 45.1079 1.99702 44.318 2.00006C42.8322 2.00339 41.3724 2.38143 40.079 3.09776L15.158 17.024C13.8952 17.729 12.8453 18.7488 12.115 19.9799C11.3847 21.211 11 22.6095 11 24.0334V60.2179C10.9981 60.9544 11.1918 61.6787 11.5621 62.3196C11.9324 62.9606 12.4665 63.4961 13.112 63.8737C13.7575 64.2512 14.4921 64.4578 15.2438 64.473C15.9954 64.4883 16.7381 64.3117 17.399 63.9607Z" fill="url(#paint3_linear_526_155)"/>
<path d="M52.85 64.4765H27.1055C26.1546 64.4864 25.2332 64.8016 24.4826 65.3738C23.7321 65.9459 23.1937 66.7433 22.9501 67.6439C22.7065 68.5445 22.7711 69.4984 23.1339 70.3596C23.4968 71.2208 24.1379 71.9416 24.959 72.4116L40.295 80.9287C41.5582 81.6322 42.9865 82.0014 44.4395 82C45.2213 81.9995 45.9988 81.8881 46.748 81.6694C48.5091 81.1792 50.0583 80.1386 51.1599 78.7061C52.2615 77.2736 52.855 75.5277 52.85 73.7342V64.4765Z" fill="url(#paint4_linear_526_155)"/>
<defs>
<linearGradient id="paint0_linear_526_155" x1="43.385" y1="-2.56" x2="43.385" y2="76.4" gradientUnits="userSpaceOnUse">
<stop stop-color="#FFB900"/>
<stop offset="0.17" stop-color="#EF8400"/>
<stop offset="0.31" stop-color="#E25C01"/>
<stop offset="0.43" stop-color="#DB4401"/>
<stop offset="0.5" stop-color="#D83B01"/>
</linearGradient>
<linearGradient id="paint1_linear_526_155" x1="66.4354" y1="0.154116" x2="17.9216" y2="85.6586" gradientUnits="userSpaceOnUse">
<stop stop-color="#800600"/>
<stop offset="0.6" stop-color="#C72127"/>
<stop offset="0.73" stop-color="#C13959"/>
<stop offset="0.85" stop-color="#BC4B81"/>
<stop offset="0.94" stop-color="#B95799"/>
<stop offset="1" stop-color="#B85BA2"/>
</linearGradient>
<linearGradient id="paint2_linear_526_155" x1="16.1114" y1="42.0302" x2="135.314" y2="42.0302" gradientUnits="userSpaceOnUse">
<stop stop-color="#F32B44"/>
<stop offset="0.6" stop-color="#A4070A"/>
</linearGradient>
<linearGradient id="paint3_linear_526_155" x1="67.7732" y1="-1.38701" x2="57.5008" y2="16.7149" gradientUnits="userSpaceOnUse">
<stop stop-opacity="0.4"/>
<stop offset="1" stop-opacity="0"/>
</linearGradient>
<linearGradient id="paint4_linear_526_155" x1="62.7315" y1="74.4618" x2="37.9939" y2="72.2576" gradientUnits="userSpaceOnUse">
<stop stop-opacity="0.4"/>
<stop offset="1" stop-opacity="0"/>
</linearGradient>
</defs>
</svg>
