<svg width="85" height="85" viewBox="0 0 85 85" fill="none" xmlns="http://www.w3.org/2000/svg">
<path d="M16.45 2H69.15C77.14 2 83.6 8.49573 83.6 16.5299V67.4701C83.6 75.5043 77.14 82 69.15 82H16.45C8.46 82 2 75.5043 2 67.4701V16.5299C2 8.49573 8.46 2 16.45 2Z" fill="#001E36"/>
<path d="M20.36 58.1026V22.9231C20.36 22.6838 20.462 22.547 20.7 22.547C21.278 22.547 21.822 22.547 22.604 22.5128C23.42 22.4786 24.27 22.4786 25.188 22.4444C26.106 22.4103 27.092 22.4103 28.146 22.3761C29.2 22.3419 30.22 22.3419 31.24 22.3419C34.028 22.3419 36.34 22.6838 38.244 23.4017C39.944 23.9829 41.508 24.9402 42.8 26.2051C43.888 27.2991 44.738 28.6325 45.282 30.1026C45.792 31.5385 46.064 33.0085 46.064 34.547C46.064 37.4872 45.384 39.9145 44.024 41.8291C42.664 43.7436 40.76 45.1795 38.55 46C36.238 46.8547 33.688 47.1624 30.9 47.1624C30.084 47.1624 29.54 47.1624 29.2 47.1282C28.86 47.094 28.384 47.094 27.738 47.094V58.0684C27.772 58.3077 27.602 58.5128 27.364 58.547C27.33 58.547 27.296 58.547 27.228 58.547H20.768C20.496 58.547 20.36 58.4103 20.36 58.1026ZM27.772 29.1453V40.6325C28.248 40.6667 28.69 40.7009 29.098 40.7009H30.9C32.226 40.7009 33.552 40.4957 34.81 40.0855C35.898 39.7778 36.85 39.1282 37.598 38.2735C38.312 37.4188 38.652 36.2564 38.652 34.7521C38.686 33.6923 38.414 32.6325 37.87 31.7094C37.292 30.8205 36.476 30.1368 35.49 29.7607C34.232 29.2479 32.872 29.0427 31.478 29.0769C30.594 29.0769 29.812 29.0769 29.166 29.1111C28.486 29.0769 28.01 29.1111 27.772 29.1453Z" fill="#31A8FF"/>
<path d="M67.28 38.547C66.26 38 65.172 37.6239 64.016 37.3846C62.758 37.1111 61.5 36.9402 60.208 36.9402C59.528 36.906 58.814 37.0085 58.168 37.1795C57.726 37.2821 57.352 37.5214 57.114 37.8632C56.944 38.1368 56.842 38.4786 56.842 38.7863C56.842 39.094 56.978 39.4017 57.182 39.6752C57.488 40.0513 57.896 40.359 58.338 40.5983C59.12 41.0085 59.936 41.3846 60.752 41.7265C62.588 42.3419 64.356 43.1966 65.988 44.2222C67.11 44.9402 68.028 45.8974 68.674 47.0598C69.218 48.1538 69.49 49.3504 69.456 50.5812C69.49 52.188 69.014 53.7949 68.13 55.1282C67.178 56.4957 65.852 57.5556 64.322 58.1709C62.656 58.8889 60.616 59.265 58.168 59.265C56.604 59.265 55.074 59.1282 53.544 58.8205C52.354 58.6154 51.164 58.2393 50.076 57.7265C49.838 57.5897 49.668 57.3504 49.702 57.0769V51.1282C49.702 51.0256 49.736 50.8889 49.838 50.8205C49.94 50.7521 50.042 50.7863 50.144 50.8547C51.47 51.641 52.864 52.188 54.36 52.5299C55.652 52.8718 57.012 53.0427 58.372 53.0427C59.664 53.0427 60.582 52.8718 61.194 52.5641C61.738 52.3248 62.112 51.7436 62.112 51.1282C62.112 50.6496 61.84 50.2051 61.296 49.7607C60.752 49.3162 59.63 48.8034 57.964 48.1538C56.23 47.5385 54.632 46.718 53.136 45.6923C52.082 44.9402 51.198 43.9487 50.552 42.7863C50.008 41.6923 49.736 40.4957 49.77 39.2991C49.77 37.8291 50.178 36.4274 50.926 35.1624C51.776 33.7949 53.034 32.7009 54.496 32.0171C56.094 31.1966 58.1 30.8205 60.514 30.8205C61.908 30.8205 63.336 30.9231 64.73 31.1282C65.75 31.265 66.736 31.5385 67.654 31.9145C67.79 31.9487 67.926 32.0855 67.994 32.2222C68.028 32.359 68.062 32.4957 68.062 32.6325V38.2051C68.062 38.3419 67.994 38.4786 67.892 38.547C67.586 38.6154 67.416 38.6154 67.28 38.547Z" fill="#31A8FF"/>
</svg>
