<svg width="85" height="85" viewBox="0 0 85 85" fill="none" xmlns="http://www.w3.org/2000/svg">
<path d="M16.45 2H69.15C77.14 2 83.6 8.49573 83.6 16.5299V67.4701C83.6 75.5043 77.14 82 69.15 82H16.45C8.46 82 2 75.5043 2 67.4701V16.5299C2 8.49573 8.46 2 16.45 2Z" fill="#00005B"/>
<path d="M21.38 58.0684V22.8547C21.38 22.6154 21.482 22.4786 21.72 22.4786C22.298 22.4786 22.842 22.4786 23.624 22.4444C24.44 22.4103 25.29 22.4103 26.208 22.3761C27.126 22.3419 28.112 22.3419 29.166 22.3077C30.22 22.2735 31.24 22.2735 32.26 22.2735C35.048 22.2735 37.36 22.6154 39.264 23.3333C40.964 23.9145 42.528 24.8718 43.82 26.1368C44.908 27.2308 45.758 28.5641 46.302 30.0342C46.812 31.4701 47.084 32.9402 47.084 34.4786C47.084 37.4188 46.404 39.8462 45.044 41.7607C43.684 43.6752 41.78 45.1111 39.57 45.9316C37.258 46.7863 34.708 47.094 31.92 47.094C31.104 47.094 30.56 47.094 30.22 47.0598C29.88 47.0256 29.404 47.0256 28.758 47.0256V58C28.792 58.2393 28.622 58.4444 28.384 58.4786H21.788C21.516 58.4786 21.38 58.3419 21.38 58.0342V58.0684ZM28.792 29.1111V40.5983C29.268 40.6325 29.71 40.6667 30.118 40.6667H31.92C33.246 40.6667 34.572 40.4615 35.83 40.0513C36.918 39.7436 37.87 39.094 38.618 38.2393C39.332 37.3846 39.672 36.2222 39.672 34.7179C39.706 33.6581 39.434 32.5983 38.89 31.6752C38.312 30.7863 37.496 30.1026 36.51 29.7265C35.252 29.2137 33.892 29.0085 32.498 29.0427C31.614 29.0427 30.832 29.0427 30.186 29.0769C29.506 29.0427 29.03 29.0769 28.792 29.1111Z" fill="#9999FF"/>
<path d="M51.98 31.1282H57.93C58.27 31.1282 58.542 31.3675 58.644 31.6752C58.746 31.9487 58.814 32.2222 58.848 32.5299C58.916 32.8718 58.984 33.2479 59.018 33.5897C59.052 33.9658 59.086 34.3761 59.086 34.8205C60.106 33.6239 61.33 32.6325 62.724 31.8803C64.288 30.9915 66.09 30.547 67.892 30.547C68.13 30.5128 68.334 30.6838 68.368 30.9231V37.7265C68.368 38 68.198 38.1026 67.824 38.1026C66.6 38.0684 65.342 38.1709 64.152 38.4444C63.166 38.6496 62.214 38.9573 61.296 39.3675C60.65 39.6752 60.038 40.0855 59.562 40.6325V58.0684C59.562 58.4103 59.426 58.547 59.12 58.547H52.422C52.15 58.5812 51.912 58.4103 51.878 58.1368V39.0598C51.878 38.2393 51.878 37.3846 51.844 36.4957C51.81 35.6068 51.81 34.7179 51.776 33.8291C51.776 33.0427 51.708 32.2906 51.64 31.5043C51.606 31.3333 51.708 31.1624 51.878 31.1282C51.878 31.094 51.946 31.094 51.98 31.1282Z" fill="#9999FF"/>
</svg>
