<svg width="85" height="85" viewBox="0 0 85 85" fill="none" xmlns="http://www.w3.org/2000/svg">
<path d="M42.5237 2.00065C39.2249 2.01581 36.0747 2.29408 33.3028 2.7792C25.1372 4.20603 23.6547 7.19252 23.6547 12.7001V19.9739H42.951V22.3986H16.413C10.8049 22.3986 5.89437 25.7325 4.35841 32.0748C2.5867 39.3445 2.50812 43.8809 4.35841 51.4717C5.73006 57.122 9.00574 61.1479 14.6138 61.1479H21.2483V52.4282C21.2483 46.1287 26.7589 40.572 33.3028 40.572H52.5766C57.9417 40.572 62.2247 36.2028 62.2247 30.8736V12.7001C62.2247 7.52782 57.8132 3.64243 52.5766 2.7792C49.2618 2.23343 45.8224 1.98549 42.5237 2.00065ZM32.0884 7.85087C34.0815 7.85087 35.7092 9.48708 35.7092 11.4989C35.7092 13.5036 34.0815 15.1247 32.0884 15.1247C30.0881 15.1247 28.4675 13.5036 28.4675 11.4989C28.4675 9.48708 30.0881 7.85087 32.0884 7.85087Z" fill="url(#paint0_linear_526_158)"/>
<path d="M64.6312 22.3986V30.8736C64.6312 37.4442 58.9991 42.9744 52.5766 42.9744H33.3028C28.0234 42.9744 23.6547 47.4435 23.6547 52.6729V70.8464C23.6547 76.0186 28.202 79.0609 33.3028 80.5448C39.4109 82.3212 45.2683 82.6423 52.5766 80.5448C57.4345 79.1537 62.2247 76.3539 62.2247 70.8464V63.5725H42.951V61.1479H71.8729C77.4809 61.1479 79.5707 57.2789 81.521 51.4717C83.5356 45.4932 83.4499 39.744 81.521 32.0748C80.1351 26.5529 77.4881 22.3986 71.8729 22.3986H64.6312ZM53.7911 68.4217C55.7914 68.4218 57.4119 70.0428 57.4119 72.0475C57.4119 74.0594 55.7914 75.6956 53.7911 75.6956C51.7979 75.6956 50.1702 74.0594 50.1702 72.0475C50.1702 70.0428 51.7979 68.4217 53.7911 68.4217Z" fill="url(#paint1_linear_526_158)"/>
<defs>
<linearGradient id="paint0_linear_526_158" x1="3" y1="2" x2="62.6129" y2="53.2928" gradientUnits="userSpaceOnUse">
<stop stop-color="#5A9FD4"/>
<stop offset="1" stop-color="#306998"/>
</linearGradient>
<linearGradient id="paint1_linear_526_158" x1="53.3268" y1="71.436" x2="37.5951" y2="49.1479" gradientUnits="userSpaceOnUse">
<stop stop-color="#FFD43B"/>
<stop offset="1" stop-color="#FFE873"/>
</linearGradient>
</defs>
</svg>
