<svg width="85" height="85" viewBox="0 0 85 85" fill="none" xmlns="http://www.w3.org/2000/svg">
<path fill-rule="evenodd" clip-rule="evenodd" d="M38.9389 2.05138C38.6513 2.08331 37.5757 2.18132 36.5486 2.26904C30.594 2.77745 25.014 4.06012 20.6377 5.92624C15.5323 8.10341 12.335 10.9887 11.2812 14.3703C11.0123 15.2327 11.0015 16.298 11.0015 42.0053C11.0015 71.7246 10.9168 69.2797 12.0196 71.4079C12.6728 72.6685 14.732 74.7926 16.3051 75.8286C20.9874 78.9122 27.6577 80.8817 36.5486 81.8058C39.049 82.0657 47.9599 82.0645 50.4426 81.8038C59.5539 80.8476 66.127 78.877 70.9101 75.6675C72.3926 74.6728 74.3274 72.6425 74.9696 71.4079C76.0745 69.2833 75.9896 71.7296 75.9896 42.0053C75.9896 16.298 75.9789 15.2327 75.71 14.3703C74.8485 11.6065 72.328 8.95495 68.7438 7.04228C64.4132 4.73114 58.4644 3.12355 51.2643 2.31872C49.3052 2.09972 40.2653 1.90369 38.9389 2.05138ZM50.1846 8.16726C57.3661 8.8265 63.8543 10.699 67.4852 13.1601C68.5958 13.9129 69.8158 15.2683 70.0324 15.9899C70.7579 18.4079 65.8709 21.6672 58.8836 23.4255C49.5785 25.7672 37.3325 25.7762 28.1823 23.4479C22.2179 21.9304 17.729 19.3797 16.9674 17.0754C16.7119 16.3023 16.9858 15.5681 17.9035 14.5654C21.2024 10.9612 30.3984 8.29138 40.9558 7.87322C43.0159 7.79162 47.7294 7.94185 50.1846 8.16726ZM21.6088 27.5273C24.427 28.6406 28.2458 29.6362 31.9172 30.2152C36.1588 30.8839 37.5359 30.9743 43.4956 30.9743C49.4552 30.9743 50.8324 30.8839 55.0739 30.2152C60.323 29.3876 65.0518 27.9311 68.6318 26.0395L70.1631 25.2304V29.7134C70.1631 34.7408 70.1607 34.755 69.1051 35.8985C66.3562 38.8765 59.194 41.3126 50.3679 42.2717C47.9558 42.5338 39.0195 42.5326 36.6233 42.2699C29.6592 41.5064 24.0953 39.9747 20.3456 37.7888C18.8007 36.8882 17.219 35.3632 16.9952 34.5587C16.8915 34.1857 16.8294 32.3318 16.8289 29.5967L16.828 25.2304L18.3594 26.0395C19.2017 26.4845 20.6638 27.154 21.6088 27.5273ZM19.4425 43.9666C24.2096 46.1876 30.094 47.6065 37.1462 48.2354C38.3376 48.3418 41.1948 48.4288 43.4956 48.4288C49.1088 48.4288 53.17 48.0467 57.9125 47.0728C62.2134 46.1895 67.185 44.4202 69.5282 42.9388L70.1631 42.5374V47.0196C70.1631 52.1 70.17 52.0628 69.0142 53.2982C66.1603 56.349 58.8937 58.7693 49.9944 59.6334C46.6843 59.9549 40.1305 59.9538 36.9221 59.6315C27.9782 58.7328 20.8234 56.3409 17.9769 53.2982C16.8212 52.0628 16.828 52.1 16.828 47.0196V42.5374L17.463 42.9388C17.8121 43.1596 18.703 43.6221 19.4425 43.9666ZM17.9652 60.5573C22.43 62.9945 28.1095 64.5633 35.7269 65.4634C37.4916 65.672 39.1427 65.7282 43.4956 65.7282C47.8484 65.7282 49.4996 65.672 51.2643 65.4634C58.8825 64.5633 64.761 62.9376 69.0007 60.5588C69.5528 60.2489 70.0402 59.9955 70.0838 59.9955C70.1274 59.9955 70.1631 61.743 70.1631 63.879C70.1631 68.2949 70.1539 68.3409 69.0142 69.5591C66.1711 72.5982 58.9578 75.0163 50.1099 75.8962C46.8312 76.2222 40.16 76.2222 36.8813 75.8962C30.8562 75.2971 25.9249 74.0977 22.1179 72.3057C20.1091 71.3602 18.9304 70.5783 17.9769 69.5591C16.8373 68.3409 16.828 68.2949 16.828 63.879C16.828 61.743 16.8524 59.9955 16.8821 59.9955C16.9117 59.9955 17.3992 60.2483 17.9652 60.5573Z" fill="#3399DB"/>
</svg>
