<svg width="85" height="85" viewBox="0 0 85 85" fill="none" xmlns="http://www.w3.org/2000/svg">
<path d="M80.9426 10.4744L64.3042 2.49678C62.3783 1.57337 60.0768 1.96289 58.5653 3.46802L4.0977 52.9228C2.63265 54.2529 2.63434 56.5499 4.10133 57.8779L8.55042 61.9057C9.74974 62.9915 11.5559 63.0714 12.8472 62.0959L78.4389 12.5441C80.6394 10.8816 83.8 12.4446 83.8 15.1952V15.0028C83.8 13.0721 82.6894 11.312 80.9426 10.4744Z" fill="#0065A9"/>
<path d="M80.9426 73.5255L64.3042 81.5031C62.3783 82.4267 60.0768 82.037 58.5653 80.5319L4.0977 31.0772C2.63265 29.747 2.63434 27.45 4.10133 26.122L8.55042 22.0942C9.74974 21.0084 11.5559 20.9285 12.8472 21.904L78.4389 71.4558C80.6394 73.1182 83.8 71.5553 83.8 68.8048V68.9972C83.8 70.9278 82.6894 72.6879 80.9426 73.5255Z" fill="#007ACC"/>
<path d="M64.305 81.5046C62.3785 82.4275 60.0769 82.0372 58.5653 80.5319C60.4278 82.3866 63.6123 81.0729 63.6123 78.45V5.54979C63.6123 2.92688 60.4278 1.61334 58.5653 3.46802C60.0769 1.96275 62.3785 1.57265 64.305 2.49525L80.9404 10.462C82.6884 11.2991 83.8 13.0598 83.8 14.9913V69.0088C83.8 70.9404 82.6884 72.701 80.9403 73.5382L64.305 81.5046Z" fill="#1F9CF0"/>
</svg>
